<?xml version="1.0" encoding="iso-8859-1"?>
<!-- Generator: Adobe Illustrator 19.1.1, SVG Export Plug-In . SVG Version: 6.00 Build 0)  -->
<svg version="1.1" id="&#x421;&#x43B;&#x43E;&#x439;_1"
	 xmlns="http://www.w3.org/2000/svg" xmlns:xlink="http://www.w3.org/1999/xlink" x="0px" y="0px" width="101px" height="80px"
	 viewBox="0 0 207 182.9" style="enable-background:new 0 0 207 182.9;" xml:space="preserve">
<style type="text/css">
	.st0{fill:#FFFFFF;}
	.st1{fill:#5095B2;}
	.st2{fill:#0E789A;}
</style>
<g>
	<g>
		<g>
			<path class="st0" d="M189.5,143.8c-0.2,0.1-0.5,0.2-0.8,0.4c-0.7,0.4-1.4,0.9-2.3,1.5c-0.4,1.5-1.4,4.1-1.5,4.4
				c-0.5,1.1-1,2.2-1.6,3.3c-0.6,1.2-1.2,2.3-1.8,3.4c-0.6,1.1-1.3,2.2-1.9,3.2c-1.8,0.2-3.6,0.6-5.5,1.3c-1.9,0.7-3.8,1.6-5.6,2.7
				c-1.8,1.1-3.6,2.3-5.2,3.7c-1.6,1.4-3.1,2.7-4.3,4.2c-1.2,1.4-2.2,2.8-2.9,4.2c-0.7,1.4-1.1,2.7-1,3.8c0,0.5,0.1,1,0.3,1.3
				c0.2,0.4,0.4,0.7,0.7,0.9c0.3,0.2,0.6,0.4,1,0.5c0.3,0.1,0.7,0.1,1,0.1c0.9,0,1.9-0.3,2.9-0.7c1.1-0.5,2.2-1.1,3.3-1.9
				c1.1-0.8,2.3-1.7,3.5-2.8c1.2-1.1,2.4-2.2,3.6-3.4c1.2-1.2,2.3-2.5,3.4-3.8c1.1-1.3,2.1-2.6,3.1-3.9c0.6-0.8,1.2-1.7,1.8-2.6
				c0.6-0.9,1.2-1.9,1.8-2.8c0.3,0.1,0.6,0.3,0.7,0.5c0.2,0.2,0.4,0.4,0.5,0.6c0.1,0,0.3,0,0.4-0.1c0.1-0.1,0.2-0.2,0.2-0.3
				c-0.1-0.3-0.3-0.5-0.5-0.8c-0.2-0.3-0.5-0.5-0.9-0.7c0.9-1.5,1.8-3.1,2.6-4.6c0.8-1.6,1.6-3,2.3-4.4c0.7-1.4,1.2-2.6,1.7-3.8
				c0.4-1.1,0.7-2,0.9-2.6C189.5,144.5,189.5,144.2,189.5,143.8z M178.4,162.1c-0.2,0.4-0.5,0.8-0.7,1.1c-1,1.5-2.1,3.1-3.2,4.6
				c-1.2,1.5-2.4,3-3.7,4.4c-1.3,1.4-2.5,2.7-3.8,3.9c-1.3,1.2-2.5,2.3-3.6,3.2c-1.1,0.9-2.2,1.6-3.2,2.1c-1,0.5-1.8,0.8-2.4,0.8
				c-0.9,0-1.4-0.2-1.7-0.6c-0.3-0.4-0.4-0.8-0.4-1.3c0-1,0.3-2.1,1-3.4c0.7-1.3,1.6-2.6,2.7-4c1.1-1.4,2.5-2.7,4-4
				c1.5-1.3,3.2-2.6,4.9-3.7c1.7-1.1,3.5-2,5.4-2.8c1.8-0.8,3.6-1.3,5.3-1.5C178.9,161.3,178.7,161.7,178.4,162.1z" fill="black"/>
		</g>
		<g>
			<path class="st0" d="M69.6,114c0,0,5.4,7.7,17.1,7.8c11.7,0.1,22.7-3.6,34.1-4.8c14.8-1.6,30.5,1,29.4,10.9c0,0,0.7-6.2-10-7.8
				c-10.8-1.6-27.6,1.8-36.7,3C94.4,124.2,76,125.8,69.6,114z"/>
			<path class="st0" d="M131.5,101c0,0,3.4-12.1,16.3-18.9c0,0-10.4-1.1-23,7.6c-25.7,17.9-33.9,19-47.1,21.2
				c0,0,16.9,1.7,38.8-12.6c2.8-1.9,7.1-4.9,11.2-7.2c2.5-1.4,5.1-2.9,9.4-4C137.2,87,133.3,90.7,131.5,101z"/>
			<path class="st0" d="M113,0c0,0-19.5,43.8-19,107.7l2.4-1C96.4,106.7,96.6,46.4,113,0z"/>
			<path class="st0" d="M98.8,88.3c0,0,33.6-36.3,13.6-79.9C112.4,8.4,140.8,49.5,98.8,88.3z"/>
			<path class="st0" d="M113,7.4c0,0,27.1,15.4,27.6,42c0.8,38.9-39.1,38.4-39.1,38.4s35.1-0.3,36.1-35.6
				C138.4,24.5,113,7.4,113,7.4z"/>
			<path class="st0" d="M83,127.2c11.3,4.6,22.3-0.8,31-3.8c17.8-6.2,30.9-8,35.9,1.6c0,0-7.4-8.8-26.8-1.5
				C91.6,135.4,83,127.2,83,127.2z"/>
			<path class="st0" d="M132.1,91.9c-5.4,2.9-12.1,7.9-16.2,10.4c-27.1,16.6-40.3,10.4-40.3,10.4c11.1,15.9,51.2,4.1,51.2,4.1
				c-0.5-2.9-0.3-5.9,0.1-8.8c-2.3,1.2-6.3,1.7-6.3,1.7s3.8-0.8,6.4-2.6c0.3-1.7,0.7-3.3,1.1-4.8c-3.8,2.5-9.6,4.2-9.6,4.2
				s6.2-2.6,10.3-6.3C130.4,95.5,132.1,91.9,132.1,91.9z"  fill="black"/>
		</g>
		<path class="st0" d="M34,137.7c1.1,0.3,2,0.7,2.8,1.1c0.8,0.4,1.4,0.9,2,1.4c0.5,0.6,0.9,1.3,1.2,2.1c0.3,0.8,0.4,1.8,0.4,3.1
			c0,1.5-0.5,2.9-1.4,4.4c-0.9,1.4-2.1,2.7-3.6,4c-1.5,1.2-3.3,2.4-5.2,3.4c-2,1-4,1.9-6.2,2.7c-2.2,0.7-4.3,1.3-6.5,1.7
			c-2.2,0.4-4.2,0.6-6.1,0.6c-1.5,0-2.9-0.2-4.2-0.6c-1.4-0.4-2.6-0.9-3.6-1.5c-1-0.6-1.9-1.2-2.5-1.9c-0.6-0.7-0.9-1.3-0.9-1.9
			c0-0.5,0.2-1.1,0.6-1.7c0.4-0.6,0.8-1.1,1.3-1.6c0.5-0.5,1-0.9,1.4-1.1c0.4-0.3,0.7-0.4,0.8-0.4c0.4,0,0.6,0.2,0.6,0.6
			c-0.2,0.2-0.4,0.4-0.7,0.6c-0.3,0.3-0.5,0.6-0.8,0.9c-0.2,0.3-0.4,0.7-0.6,1.1c-0.1,0.4-0.2,0.8-0.1,1.2c0.1,0.7,0.7,1.2,1.8,1.6
			c1.1,0.4,2.5,0.7,4.2,0.9c1.7,0.2,3.7,0.2,5.8,0c2.2-0.1,4.4-0.4,6.6-0.8c2.2-0.4,4.4-1,6.5-1.8c2.1-0.8,4-1.7,5.7-2.8
			c1.7-1.1,3-2.3,4.1-3.8c1-1.4,1.6-3.1,1.6-4.9c0-0.7-0.3-1.4-1-2.1c-0.7-0.7-1.6-1.4-2.8-2c-1.2-0.6-2.7-1.1-4.5-1.4
			c-1.8-0.4-3.7-0.5-5.9-0.5c-0.5,0-1,0-1.5,0.1c-0.8,1-1.6,1.9-2.4,2.9c-1.4,1.7-2.6,3.3-3.7,4.7c-1.1,1.4-1.8,2.5-2.3,3.3l0.2,0.1
			l2.2-1.6c0.5-0.4,0.9-0.7,1.3-1c0.4-0.3,0.6-0.5,0.7-0.5c0.3,0,0.5,0.1,0.5,0.4c0,0-0.2,0.2-0.5,0.7c-0.4,0.4-0.8,0.9-1.4,1.5
			c-0.6,0.6-1.2,1.2-1.8,1.9c-0.7,0.7-1.3,1.3-1.9,1.9c-0.6,0.6-1.1,1.1-1.5,1.6c-0.4,0.4-0.7,0.7-0.7,0.8c-0.1,0.2-0.2,0.3-0.3,0.6
			c-0.1,0.2-0.2,0.5-0.3,0.7c-0.1,0.2-0.3,0.4-0.4,0.6c-0.2,0.2-0.4,0.3-0.6,0.3c-0.5,0-0.9-0.2-1.2-0.7c-0.3-0.5-0.4-1-0.4-1.7
			c0-0.2,0.2-0.7,0.6-1.4c0.4-0.7,1-1.6,1.7-2.7c0.7-1,1.6-2.2,2.5-3.5c0.9-1.3,1.9-2.5,2.8-3.8c1-1.3,1.9-2.5,2.8-3.7
			c0.1-0.1,0.2-0.2,0.3-0.4c-0.6,0.2-1.1,0.3-1.6,0.5c-1,0.3-2,0.7-2.8,1c-0.8,0.3-1.5,0.5-2,0.5c-0.9,0-1.6,0-2.1,0
			c-0.5,0-0.8-0.4-0.8-1c0-0.2,0.3-0.4,0.9-0.8c0.6-0.3,1.5-0.7,2.6-1c1.1-0.4,2.4-0.7,3.9-1c1.2-0.3,2.5-0.5,3.9-0.6l0.2-0.3
			c0.7-0.9,1.5-1.8,2.4-3c0.9-1.1,1.9-2.3,2.9-3.5c1-1.2,2-2.4,3.1-3.6c1-1.2,2-2.3,2.9-3.2c-2.4,0.3-4.8,0.7-7.1,1.1
			c-2.4,0.4-4.6,0.8-6.8,1.2c-2.2,0.4-4.2,0.8-6,1.1c-1.8,0.4-3.4,0.7-4.8,1c-1.4,0.3-2.5,0.5-3.3,0.7c-0.8,0.2-1.3,0.3-1.4,0.3
			c-0.4,0-0.8-0.1-1-0.2c-0.3-0.2-0.4-0.3-0.4-0.6c0-0.2,0.3-0.5,1-0.8c0.7-0.4,1.6-0.8,2.6-1.2c1.1-0.4,2.2-0.9,3.4-1.3
			c1.2-0.4,2.4-0.8,3.5-1.2c1.1-0.4,2-0.7,2.7-0.9c0.7-0.2,1.1-0.3,1.2-0.3c0.4,0,0.6,0.2,0.6,0.5c0,0.1-0.1,0.2-0.4,0.4
			c-0.3,0.2-0.6,0.3-1,0.5c-0.3,0.2-0.7,0.4-1,0.5c-0.3,0.2-0.5,0.2-0.6,0.3l0,0.2c0.4-0.1,1.2-0.3,2.5-0.5c1.3-0.2,2.8-0.5,4.7-0.8
			c1.9-0.3,4-0.7,6.3-1c2.3-0.4,4.8-0.7,7.3-1c0.5-0.5,1-0.9,1.5-1.2c0.4-0.3,0.8-0.5,1-0.5c0.4,0,0.7,0.1,0.8,0.3
			c0.1,0.2,0.2,0.4,0.2,0.8c0,0.1,0,0.2,0,0.2c1.8-0.2,3.6-0.3,5.3-0.4c1.7-0.1,3.3-0.2,5-0.2c1.6,0,2.9,0,3.9,0.1
			c1.1,0,2,0.1,2.7,0.2c0.7,0.1,1.3,0.2,1.7,0.3c0.4,0.1,0.7,0.2,0.9,0.3c0.3,0.2,0.6,0.5,0.7,0.8c0.1,0.3,0.2,0.6,0.2,0.9
			c0,0.3-0.3,0.6-1,0.9c-0.7,0.3-1.4,0.5-2.2,0.8c-0.8,0.2-1.6,0.4-2.3,0.5c-0.7,0.1-1.1,0.2-1.2,0.2c-0.2,0-0.5,0-0.7-0.1
			c-0.2-0.1-0.3-0.2-0.3-0.3c0-0.1,0.3-0.2,0.9-0.4c0.6-0.2,1.3-0.3,2-0.5c0.7-0.2,1.4-0.4,2-0.7c0.6-0.2,0.9-0.5,0.9-0.7
			c0-0.2-0.2-0.3-0.5-0.4c-0.3-0.1-0.8-0.2-1.4-0.2c-0.6,0-1.2-0.1-2-0.1c-0.7,0-1.5,0-2.3,0c-2,0-4.1,0.1-6.4,0.3
			c-2.3,0.2-4.6,0.4-7.1,0.7c-0.7,0.7-1.7,1.8-3,3.2c-1.3,1.4-2.6,3-4.1,4.7c-1.5,1.7-3.1,3.6-4.7,5.5c-0.2,0.2-0.4,0.5-0.6,0.8
			c1,0,2.1,0,3.2,0.1C30,136.8,32,137.1,34,137.7z" fill="black"/>
		<path class="st0" d="M58.6,146.2c-0.4,0.4-1,1.1-1.8,2c-0.8,0.9-1.9,2-3.3,3.2c-0.7,0.6-1.4,1.2-2.1,1.8c-0.7,0.6-1.5,1.1-2.2,1.5
			c-0.7,0.4-1.5,0.8-2.2,1c-0.7,0.3-1.4,0.4-2,0.4c-1.1,0-2-0.3-2.7-1c-0.7-0.7-1-1.6-1-2.8c0-1.4,0.3-2.8,1-4.2
			c0.7-1.4,1.5-2.7,2.5-3.8c1-1.1,2-2,2.9-2.7c1-0.7,1.8-1,2.4-1c0.4,0,0.8,0.1,1.1,0.4c0.3,0.3,0.6,0.5,0.8,0.7
			c0.3,0.2,0.6,0.4,1,0.6c0.4,0.2,0.6,0.6,0.6,1c0,0.5-0.3,1.1-1,1.7c-0.7,0.6-1.5,1.2-2.4,1.7c-0.9,0.5-1.9,1-2.9,1.5
			c-1,0.4-1.9,0.7-2.6,0.9c-0.3,0.6-0.6,1.3-0.8,1.9c-0.2,0.6-0.3,1.2-0.3,1.8c0,0.6,0.1,1.1,0.4,1.4c0.3,0.3,0.7,0.5,1.2,0.5
			c0.5,0,1-0.1,1.6-0.3c0.6-0.2,1.2-0.5,1.8-0.9c0.6-0.4,1.3-0.8,1.9-1.3c0.7-0.5,1.3-1,1.9-1.6c1.2-1,2.3-2.1,3.3-3.1
			c1-1.1,1.8-1.9,2.3-2.6c0.3,0,0.4,0.1,0.5,0.4C58.8,145.7,58.7,145.9,58.6,146.2z M52,143.7c0-0.2-0.1-0.4-0.2-0.5
			c-0.1-0.2-0.4-0.2-0.9-0.2c-0.3,0-0.6,0.1-1,0.3c-0.4,0.2-0.8,0.5-1.3,0.9c-0.4,0.4-0.9,0.8-1.3,1.3c-0.4,0.5-0.9,1.1-1.3,1.6
			c0.6-0.1,1.2-0.3,1.9-0.7c0.7-0.3,1.3-0.7,1.9-1c0.6-0.4,1.1-0.7,1.5-1C51.8,144.1,52,143.9,52,143.7z" fill="black"/>
		<path class="st0" d="M66.4,144.1c0.5-0.8,0.9-1.3,1.3-1.7c0.4-0.4,0.8-0.7,1.1-0.8c0.3-0.1,0.7-0.2,1-0.2c0.3,0,0.7,0,1.1,0.1
			c0.3,0,0.5,0.1,0.7,0.2c0.2,0.1,0.1,0.4,0,0.9c-0.2,0.6-0.6,1.3-1.3,2.1c-0.7,0.8-1.4,1.8-2.1,2.8c-0.7,1-1.4,2.1-2,3.1
			c-0.6,1.1-1,2.2-1,3.3c-0.1,0.3,0.1,0.5,0.5,0.6c0.3-0.1,0.8-0.4,1.4-0.8c0.6-0.5,1.2-1,1.8-1.5c0.6-0.5,1.2-1.1,1.7-1.6
			c0.5-0.5,0.9-0.9,1.1-1.1c0.1,0,0.2,0,0.3,0c0.1,0.1,0.1,0.2,0,0.5c-0.4,0.5-0.9,1-1.5,1.6c-0.6,0.6-1.2,1.2-1.8,1.8
			c-0.6,0.6-1.3,1.2-2,1.6c-0.7,0.5-1.3,0.8-2,1c-0.5,0.2-0.9,0.1-1.2-0.1c-0.3-0.2-0.4-0.7-0.4-1.4c-0.1-0.8,0.1-1.7,0.4-2.7
			c0.3-1,0.7-1.9,1.1-2.8c0.4-0.9,0.8-1.7,1.2-2.3c0.4-0.7,0.6-1.1,0.7-1.2c-0.3,0.3-0.7,0.8-1.1,1.4c-0.4,0.6-0.8,1.3-1.3,2.1
			c-0.5,0.8-1,1.6-1.6,2.4c-0.6,0.8-1.2,1.6-1.9,2.3c-0.7,0.7-1.4,1.3-2.2,1.7c-0.8,0.5-1.6,0.7-2.6,0.8c-0.8,0-1.3-0.2-1.7-0.6
			c-0.4-0.4-0.6-0.9-0.6-1.4c0-0.5,0.1-1,0.4-1.5c0.3-0.5,0.8-0.7,1.4-0.7c0.2,0,0.4,0,0.6,0.1c0.2,0.1,0.4,0.3,0.5,0.6v0.2
			c-0.2,0.8-0.1,1.4,0.1,1.6c0.2,0.2,0.5,0.4,0.8,0.4c0.8,0,1.5-0.4,2.3-1c0.8-0.7,1.5-1.5,2.3-2.6c0.8-1,1.5-2.2,2.3-3.4
			C64.9,146.4,65.7,145.2,66.4,144.1z" fill="black"/>
		<path class="st0" d="M82.3,148.8c0.3,0.6,0.3,1.4,0,2.3c-0.3,0.9-0.8,1.8-1.4,2.7c-0.7,0.9-1.5,1.6-2.4,2.2c-1,0.6-2,0.9-3,1
			c-1.2,0-2.1-0.3-2.7-1c-0.6-0.7-0.8-1.8-0.6-3.3c0.4-1.2,0.8-2.3,1.3-3.2c0.5-0.9,0.9-1.7,1.4-2.4c0.5-0.7,1-1.4,1.5-2.1
			c0.5-0.7,1-1.4,1.5-2.3c0-0.2,0.1-0.4,0.2-0.6c0.2-0.3,0.3-0.5,0.6-0.8c0.2-0.2,0.5-0.5,0.8-0.6c0.3-0.2,0.6-0.3,0.9-0.3
			c0.5-0.1,0.8,0,1,0.3c0.2,0.2,0.3,0.5,0.2,0.7c0,0.2-0.1,0.6-0.3,1c-0.2,0.4-0.4,0.8-0.5,1c-0.1,0.1-0.3,0.3-0.5,0.7
			c-0.3,0.4-0.5,0.8-0.8,1.2c-0.3,0.4-0.6,0.9-0.9,1.3c-0.3,0.5-0.6,0.8-0.8,1.1c-0.2,0.3-0.6,0.7-1,1.3c-0.4,0.6-0.8,1.3-1.2,1.9
			c-0.4,0.7-0.7,1.4-1,2c-0.3,0.7-0.5,1.2-0.5,1.6c-0.2,0.9,0.2,1.5,0.9,1.5c0.6,0.1,1.2,0,1.8-0.3c0.6-0.3,1.1-0.6,1.5-1.1
			c0.5-0.5,0.9-1,1.2-1.6c0.3-0.6,0.6-1.2,0.9-1.8c0.2-0.6,0.4-1.1,0.5-1.6c0.1-0.5,0.1-0.8,0-1.1c-0.1-0.1-0.3-0.1-0.5-0.1
			c-0.2,0-0.4-0.2-0.5-0.6c-0.2-0.5-0.2-1,0-1.3c0.2-0.4,0.5-0.7,1-0.9c0.6-0.2,1-0.3,1.3-0.2c0.3,0.1,0.5,0.4,0.7,0.8
			c0,0.1,0,0.2,0,0.3c0.1,0.1,0.3,0.2,0.5,0.3c0.3,0.1,0.6,0.2,0.8,0.3c0.3,0.1,0.5,0.1,0.8,0.2c0.2,0.1,0.4,0.1,0.4,0.1
			c0.4,0.1,0.4,0.3,0,0.5c-0.1,0-0.2,0-0.5,0.1c-0.3,0.1-0.6,0.1-0.9,0.2c-0.3,0.1-0.6,0.2-0.9,0.2
			C82.6,148.7,82.4,148.7,82.3,148.8z M92.6,151.8c-0.1,0.1-0.3,0.3-0.5,0.5c-0.2,0.2-0.5,0.5-0.8,0.8c-0.3,0.3-0.6,0.5-1,0.8
			c-0.3,0.3-0.6,0.5-0.9,0.6c-0.5,0.3-1.1,0.6-1.8,1c-0.7,0.4-1.4,0.6-2.1,0.6c-0.5,0-0.9-0.1-1.2-0.4c-0.4-0.2-0.6-0.7-0.7-1.4
			c-0.1-0.6,0-1.3,0.3-2.1c0.3-0.8,0.6-1.6,1-2.4c0.4-0.8,0.7-1.4,1.1-2c0.3-0.6,0.5-0.9,0.6-1c0.3-0.3,0.4-0.7,0.3-1
			c0-0.2,0-0.3,0.1-0.6c0.1-0.2,0.2-0.5,0.4-0.7c0.2-0.2,0.4-0.4,0.6-0.6c0.2-0.2,0.5-0.2,0.8-0.2c0.4,0,0.7,0.1,1,0.3
			c0.3,0.2,0.4,0.4,0.5,0.6c0,0.2,0,0.6,0,1.1c0,0.5-0.1,0.8-0.3,1c-0.1,0.1-0.3,0.3-0.5,0.6c-0.2,0.3-0.5,0.7-0.8,1.1
			c-0.3,0.4-0.6,0.8-0.9,1.3c-0.3,0.4-0.5,0.8-0.7,1c-0.4,0.6-0.8,1.2-1.1,1.8c-0.3,0.6-0.5,1.1-0.4,1.5c0,0.1,0.1,0.2,0.2,0.4
			c0.1,0.1,0.2,0.2,0.4,0.2c0.4,0,0.9-0.1,1.5-0.4c0.6-0.3,1.2-0.6,1.8-1c0.6-0.4,1.1-0.8,1.6-1.2s0.9-0.7,1.1-0.9
			C92.4,151.3,92.6,151.5,92.6,151.8z" fill="black"/>
		<path class="st0" d="M108.6,153.4c0,0-0.1,0.2-0.4,0.4c-0.1,0.1-0.2,0.2-0.3,0.4c-0.2,0.2-0.3,0.5-0.5,0.7
			c-0.2,0.2-0.4,0.4-0.6,0.6c-0.2,0.2-0.4,0.3-0.6,0.3c-0.5,0-1-0.3-1.4-0.9c-0.4-0.6-0.6-1.3-0.6-2.2c0-0.9,0.1-1.6,0.3-2.1
			c0.2-0.5,0.4-0.9,0.5-1.1l-0.1-0.1c-0.1,0.1-0.3,0.3-0.7,0.7c-0.4,0.4-0.8,0.8-1.4,1.4c-0.6,0.5-1.2,1.1-1.9,1.7
			c-0.7,0.6-1.4,1.2-2,1.7c-0.7,0.5-1.3,0.9-1.8,1.3c-0.6,0.3-1,0.5-1.4,0.5c-0.2,0-0.5-0.1-0.8-0.2c-0.3-0.1-0.6-0.3-0.8-0.5
			c-0.2-0.2-0.4-0.4-0.6-0.6c-0.2-0.2-0.2-0.5-0.2-0.7c0-0.7,0.2-1.6,0.6-2.8c0.4-1.2,0.8-2.3,1.3-3.5c0.3-0.6,0.6-1.2,1-1.8
			c0.3-0.6,0.7-1.1,1-1.5c0.3-0.4,0.6-0.8,0.9-1c0.3-0.3,0.6-0.4,0.8-0.4c0.2,0,0.5,0.2,0.7,0.6c0.3,0.4,0.4,0.7,0.4,0.9
			c0,0.1,0,0.2,0,0.2c-0.2,0.3-0.6,0.9-1,1.6c-0.4,0.7-0.8,1.5-1.2,2.3c-0.4,0.8-0.8,1.6-1.1,2.4c-0.3,0.8-0.5,1.4-0.5,1.8
			c0,0.2,0,0.4,0.1,0.7c0.1,0.2,0.2,0.3,0.5,0.3c0.2,0,0.4-0.1,0.8-0.3c0.3-0.2,0.7-0.4,1.2-0.7c0.4-0.3,0.9-0.7,1.4-1.1
			c0.5-0.4,1-0.9,1.5-1.3c0.8-0.8,1.5-1.5,2.2-2.3c0.7-0.8,1.2-1.4,1.6-1.8c0.2-0.1,0.3-0.3,0.5-0.4c0.1-0.1,0.2-0.2,0.3-0.2
			c0.4,0,0.7,0.2,1,0.7c0.3,0.5,0.4,1,0.4,1.5c0,0.7-0.1,1.4-0.4,2c-0.3,0.6-0.4,1.3-0.4,2c0,0.4,0.2,0.6,0.6,0.7
			c0.4,0.1,0.7,0.1,0.9,0.1C108.5,153.3,108.6,153.3,108.6,153.4z M103.1,137.6c0-0.1,0.1-0.3,0.3-0.5c0.1-0.2,0.3-0.3,0.5-0.3
			c0.2,0.1,0.3,0.2,0.3,0.3c0,0.2,0,0.3-0.1,0.4c-0.1,0.1-0.1,0.2-0.1,0.4c-0.1,0.5,0,1.1,0.2,1.6c0.2,0.5,0.4,1,0.8,1.5
			c0.3-0.1,0.7-0.1,1.3-0.2c0.6-0.1,1.2-0.1,1.7-0.2c0.6-0.1,1.1-0.2,1.6-0.4c0.5-0.2,0.8-0.3,0.9-0.5h0.5l0.2,0.2
			c-0.2,0.4-0.5,0.7-1,1c-0.5,0.3-1.1,0.5-1.7,0.7c-0.6,0.2-1.2,0.4-1.8,0.5c-0.6,0.2-1,0.3-1.3,0.4c-0.3,0.2-0.6,0.3-0.8,0.4
			c-0.2,0.1-0.6,0.1-1.1-0.1c-0.3-0.1-0.6-0.4-0.7-1c-0.1-0.5-0.1-1.1-0.1-1.6c0-0.6,0.1-1.1,0.2-1.6
			C102.9,138.2,103,137.8,103.1,137.6z" fill="black"/>
		<path class="st0" d="M142.5,143.4c0,0.4,0,0.9-0.2,1.5c-0.1,0.6-0.3,1.4-0.6,2.1c-0.2,0.8-0.5,1.5-0.8,2.4
			c-0.3,0.8-0.3,0.9-0.6,1.6c-0.3,0.7-0.5,1.2-0.6,1.6c-0.2,0.4-0.2,0.6-0.2,0.7c0,0.2,0.1,0.3,0.2,0.3c0.1,0,0.3-0.1,0.6-0.3
			c0.2-0.2,0.5-0.3,0.6-0.3c0.1,0,0.2,0,0.2,0.1c0,0.1,0.1,0.2,0.1,0.3c0,0.1-0.1,0.3-0.3,0.5c-0.2,0.3-0.5,0.5-0.9,0.8
			c-0.3,0.3-0.7,0.6-1,0.8c-0.3,0.2-0.6,0.4-0.7,0.4c-0.2,0-0.4-0.2-0.8-0.5c-0.3-0.4-0.5-0.8-0.6-1.3c0-0.4,0-0.9,0.2-1.5
			c0.2-0.7,0.4-1.4,0.7-2.2c0.3-0.8,0.4-1,0.7-1.8c0.3-0.8,0.6-1.6,0.9-2.3c0.3-0.7,0.5-1.3,0.7-1.9c0.2-0.5,0.3-0.9,0.3-1.1
			c0-0.4-0.2-0.6-0.6-0.6c-0.5,0-1,0.2-1.7,0.6c-0.6,0.3-1.3,0.8-2.1,1.3c-0.7,0.5-1.5,1.1-2.3,1.8c-0.8,0.7-1.5,1.3-2.3,2
			c-0.8,0.7-1.6,1.4-2.3,2.1c-0.7,0.7-2.1,2.2-2.7,2.7c-0.6,0.5-1,1-1.3,1.3c-0.3,0.3-0.5,0.5-0.5,0.5c-0.1,0-0.2,0-0.3-0.1
			c-0.2-0.1-0.3-0.2-0.5-0.3c-0.2-0.1-0.4-0.3-0.5-0.4c-0.2-0.1-0.2-0.3-0.2-0.4c0-0.1,0.1-0.4,0.3-0.8c0.2-0.4,1.3-1.9,1.7-2.5
			c0.4-0.6,0.8-1.3,1.3-2c0.5-0.7,2.7-4.4,3.2-4.9c0.4-0.6,0.8-1.1,1.1-1.5c0.3-0.4,0.6-0.6,0.7-0.6c0.2,0,0.4,0.1,0.6,0.3
			c0.2,0.2,0.3,0.4,0.3,0.6c0,0.1-0.1,0.2-0.2,0.5c-0.1,0.3-0.3,0.6-0.5,1c-0.2,0.4-2.3,3.9-2.6,4.4c-0.3,0.5-0.5,1-0.8,1.5
			c0.7-0.7,1.6-1.5,2.6-2.5c1-0.9,2.1-1.8,3.2-2.6c1.1-0.8,2.2-1.6,3.3-2.2c1.1-0.6,2.1-0.9,3-1c0.5,0,1,0.1,1.5,0.4
			C142.2,142.3,142.5,142.8,142.5,143.4z" fill="black"/>
		<path class="st0" d="M163.9,146.3c-0.1,0.1-0.3,0.3-0.6,0.7c-0.3,0.4-0.7,0.8-1.2,1.3c-0.4,0.5-0.9,0.9-1.3,1.4
			c-0.5,0.5-0.8,0.8-1.1,1.1c-0.3,0.3-0.7,0.6-1.2,1c-0.4,0.4-0.9,0.8-1.4,1.1c-0.5,0.4-1,0.7-1.4,0.9c-0.5,0.3-0.9,0.4-1.3,0.4
			c-0.5,0-0.9-0.3-1.2-0.8c-0.2-0.5-0.4-1.2-0.4-2c0-0.4,0.1-0.9,0.2-1.5c0.1-0.6,0.2-0.9,0.3-1c0-0.1,0-0.2,0-0.2
			c0-0.1-0.1-0.1-0.2-0.1c0,0-0.2,0.1-0.5,0.4c-0.3,0.2-0.6,0.5-1,0.9c-0.4,0.3-0.9,0.7-1.3,1.1c-0.5,0.4-0.9,0.8-1.3,1.2
			c-0.4,0.4-0.9,0.8-1.4,1.3c-0.6,0.5-1.1,1-1.7,1.4c-0.5,0.4-1,0.8-1.5,1.1c-0.5,0.3-0.8,0.5-1,0.5c-0.3,0-0.6-0.2-0.8-0.5
			c-0.2-0.4-0.3-0.8-0.3-1.2c0-0.8,0.2-1.6,0.5-2.6c0.4-1,0.8-2,1.4-3.1c0.6-1.1,1.3-2.1,2-3.1c0.8-1,1.6-1.9,2.4-2.7
			c0.8-0.8,1.7-1.5,2.5-2c0.9-0.5,1.6-0.8,2.4-0.8c0.6,0,1.1,0.2,1.5,0.5c0.4,0.3,0.6,0.9,0.6,1.5c0,0.2-0.1,0.4-0.2,0.8
			c-0.1,0.3-0.2,0.7-0.4,1c-0.2,0.4-0.4,0.8-0.6,1.2c-0.2,0.4-0.4,0.7-0.6,1c0.3-0.2,0.5-0.2,0.7-0.2c0.4,0,0.7,0.1,0.9,0.3
			c0.2,0.2,0.3,0.5,0.3,0.9c0,0.3-0.1,0.6-0.2,1c-0.1,0.4-0.3,0.8-0.4,1.2c-0.2,0.4-0.3,0.8-0.4,1.2c-0.1,0.4-0.2,0.7-0.2,1
			c0,0.2,0,0.5,0.1,0.6c0.1,0.2,0.2,0.3,0.5,0.3c0.3,0,0.9-0.3,1.6-0.9c0.8-0.6,1.6-1.3,2.4-2.1c0.5-0.5,0.9-0.9,1.4-1.4
			c0.5-0.5,0.9-0.9,1.3-1.3c0.4-0.4,0.7-0.7,1-1c0.3-0.3,0.5-0.5,0.6-0.7c0.1,0,0.2,0.1,0.3,0.2
			C164.1,145.7,164.1,145.9,163.9,146.3z M154.8,142.4c0-0.3-0.1-0.4-0.4-0.4c-0.3,0-0.8,0.2-1.4,0.6c-0.6,0.4-1.3,1-2.1,1.7
			c-0.8,0.7-1.5,1.5-2.3,2.3c-0.8,0.9-1.5,1.8-2.2,2.6c-0.9,1.2-1.6,2.2-2,3.1c-0.5,0.9-0.7,1.6-0.7,2.1c0,0.3,0,0.5,0.1,0.5
			c0.1,0,0.4-0.2,0.8-0.5c0.4-0.3,1-0.7,1.6-1.2c0.6-0.5,1.2-1,1.8-1.5c0.6-0.6,1.2-1.1,1.7-1.5c0.5-0.5,1.1-1,1.6-1.5
			c0.5-0.5,1-0.9,1.5-1.3c-0.2-0.1-0.4-0.1-0.5-0.2c-0.2-0.1-0.2-0.2-0.2-0.2c0-0.1,0.1-0.1,0.2-0.3c0.1-0.1,0.2-0.2,0.4-0.4
			c0.1-0.1,0.2-0.3,0.5-0.7c0.2-0.4,0.5-0.8,0.8-1.2c0.3-0.4,0.5-0.9,0.7-1.3C154.7,142.8,154.8,142.5,154.8,142.4z"/>
		<path class="st0" d="M177.3,152c0.3,0,0.7-0.2,1.2-0.5c0.5-0.3,1.1-0.7,1.7-1.1c0.6-0.4,1.3-0.9,2-1.4c0.7-0.5,1.3-1,1.8-1.5
			c0.6-0.5,1-0.9,1.4-1.2c0.4-0.3,0.6-0.5,0.6-0.6c0.1-0.1,0.3-0.1,0.3,0.1c-0.3,0.8-1.1,5.9,0,6.1c1.1-2,2.5-5.2,2.9-6.4
			c0.4-1.4,0.7-2.3,0.7-3.4c0-0.7-0.2-1.1-0.6-1.1c-0.2,0-0.6,0.5-1.5,1.4c-0.8,0.9-2.1,2.1-3.8,3.5c-0.4,0.3-1,0.7-1.5,1.2
			c-0.6,0.5-1.1,0.9-1.7,1.4c-0.6,0.4-1.1,0.8-1.5,1.1c-0.5,0.3-0.8,0.5-1.1,0.5c-0.2,0-0.3,0-0.4-0.2c0-0.1-0.1-0.2-0.1-0.3
			c0-0.1,0.2-0.4,0.5-0.9c0.3-0.6,0.7-1.2,1.1-1.8c0.4-0.7,2.3-4.1,2.6-4.6c0.3-0.6,0.5-0.9,0.5-1c0-0.1-0.1-0.4-0.4-0.6
			c-0.3-0.3-0.5-0.4-0.7-0.4c-0.2,0-2.5,0.4-3,1c-0.2,0.3,1.2,0,1.1,0.8c-0.2,1.1-1.9,3.5-2.2,3.9c-0.5,0.8-1,1.5-1.4,2.3
			c-0.4,0.8-0.6,1.3-0.6,1.6c0,0.7,0.2,1.2,0.6,1.6C176.5,151.9,176.9,152,177.3,152z" fill="black"/>
		<path class="st0" d="M206.9,145.2c-0.5,0.6-1.2,1.3-2.1,2.2c-0.9,0.9-1.9,1.8-2.9,2.6c-0.7,0.6-1.3,1.1-2,1.6
			c-0.7,0.5-1.4,1-2,1.4c-0.7,0.4-1.3,0.7-1.9,0.9c-0.6,0.2-1.2,0.4-1.7,0.4c-1.1,0-2-0.3-2.7-0.9c-0.7-0.6-1-1.5-1-2.6
			c0-1.3,0.3-2.6,1-3.8c0.7-1.3,1.5-2.4,2.5-3.4c1-1,2-1.8,2.9-2.5c1-0.6,1.8-0.9,2.4-0.9c0.2,0,0.5,0.1,0.8,0.3
			c0.3,0.2,0.6,0.4,0.8,0.7c0.2,0.3,0.4,0.6,0.6,0.9c0.2,0.3,0.3,0.5,0.3,0.7c0,0.6-0.2,1-0.5,1.2c-0.4,0.3-0.7,0.4-0.9,0.4
			c-0.1,0-0.1-0.1-0.1-0.3c0-0.1,0-0.3,0.1-0.5c0.1-0.2,0.1-0.4,0.1-0.5c0-0.2,0-0.4,0-0.5c0-0.1-0.1-0.2-0.4-0.2
			c-0.5,0-1.2,0.3-2,0.9c-0.8,0.6-1.6,1.3-2.4,2.2c-0.8,0.9-1.4,1.9-2,2.9c-0.5,1.1-0.8,2.1-0.8,3.1c0,0.6,0.1,1,0.4,1.3
			c0.3,0.3,0.7,0.5,1.2,0.5c0.4,0,0.9-0.1,1.4-0.3c0.5-0.2,1.1-0.5,1.7-0.9c0.6-0.4,1.2-0.8,1.9-1.3c0.7-0.5,1.3-1,1.9-1.5
			c1.1-0.9,2.1-1.9,3.1-2.8c0.9-0.9,1.6-1.6,2.1-2.2c0.3,0,0.4,0.1,0.5,0.4C207.1,144.8,207,145,206.9,145.2z" fill="black"/>
		<path class="st0" d="M174.2,142.3c-0.3-0.4-0.6-0.8-1.1-1.1c-0.5-0.3-1.1-0.5-1.8-0.6c-0.7-0.1-1.5-0.1-2.5,0
			c-1.2,0.2-2.5,0.5-3.8,1c-0.7,0.3-1.5,0.6-2.2,1c-0.2,0.6-0.4,1.2-0.7,1.8c0.9-0.5,1.8-0.9,2.6-1.3c-0.3,0.4-0.7,1.1-1.3,1.8
			c-0.5,0.8-1.2,1.7-1.8,2.7c-0.7,1-1.4,2.1-2.1,3.2c-0.7,1.1-1.5,2.3-2.2,3.4c-0.5,0.9-1.1,1.8-1.6,2.8c-0.5,1-3.1,5.8-3.5,6.7
			c-0.4,0.8-0.7,1.6-1,2.2c-0.2,0.6-0.3,1-0.3,1.3c0,0.1,0.1,0.3,0.2,0.5c0.1,0.2,0.2,0.4,0.3,0.5c0.1,0.2,0.3,0.3,0.4,0.4
			c0.1,0.1,0.3,0.2,0.4,0.1c0.1,0,0.3-0.2,0.5-0.6c0.2-0.4,0.4-0.9,0.6-1.4c0.2-0.5,0.4-1,0.6-1.5c0.2-0.5,0.3-0.7,0.3-0.8
			c0-0.1-0.1-0.2-0.2-0.1c-0.1,0-0.1,0.1-0.3,0.3c-0.1,0.2-0.2,0.3-0.4,0.5c-0.1,0.2-0.3,0.3-0.4,0.5c-0.1,0.2-0.2,0.3-0.2,0.3
			l-0.1,0c0-0.1,0.1-0.3,0.4-0.8c0.2-0.5,0.6-1.1,1-1.9c0.4-0.8,3.1-5.7,3.7-6.7c0.6-1,1.2-2.1,2-3.2c0.8-1.3,1.7-2.5,2.5-3.7
			c0.8-1.1,1.5-2.1,2.1-3c0.6-0.9,1.1-1.5,1.5-2.1c0.4-0.5,0.6-0.8,0.6-0.9c0-0.1-0.1-0.3-0.2-0.6c-0.1-0.3-0.2-0.5-0.3-0.6
			c0.8-0.3,1.5-0.5,2.2-0.8c0.7-0.2,1.4-0.4,2-0.4c1.2-0.1,2.1-0.1,2.7,0.2c0.6,0.3,0.9,0.8,1,1.4c0.1,0.5,0,1.2-0.3,1.9
			c-0.3,0.7-0.6,1.4-1.1,2.2c-0.5,0.8-1.1,1.5-1.8,2.3c-0.7,0.8-1.5,1.4-2.3,2c-0.8,0.6-1.7,1.1-2.6,1.6c-0.9,0.4-1.8,0.7-2.6,0.8
			c-0.6,0.1-1.1,0.1-1.4-0.1c-0.3-0.1-0.4-0.3-0.5-0.5c0-0.2,0-0.5,0.1-0.8c0.1-0.3,0.2-0.4,0.3-0.5c0,0-0.1-0.1-0.1-0.1
			c0,0-0.1-0.1-0.1,0c-0.1,0.1-0.1,0.2-0.3,0.3c-0.1,0.1-0.2,0.2-0.3,0.4c-0.1,0.1-0.2,0.3-0.2,0.5c-0.1,0.2-0.1,0.4-0.1,0.6
			c0,0.3,0.1,0.5,0.3,0.7c0.2,0.2,0.4,0.4,0.7,0.5c0.3,0.1,0.6,0.2,1,0.3c0.4,0,0.7,0,1.1,0c1.1-0.1,2.1-0.4,3-0.8
			c1-0.4,1.9-0.9,2.7-1.5c0.8-0.6,1.6-1.3,2.3-2c0.7-0.8,1.2-1.5,1.7-2.3c0.4-0.8,0.8-1.6,1-2.3c0.2-0.8,0.3-1.5,0.2-2.2
			C174.6,143.2,174.5,142.7,174.2,142.3z" fill="black"/>
	</g>
	<g>
		<g>
			<path class="st0" d="M9.9,175.4c-1.8,0.4-2.9,1.5-3.9,2.9l0.5,0c0.9,0,1.3,0.4,1.4,1.3l0.1,1.5c0,0.5,0.2,0.6,0.6,0.7l0.3,0.1
				l-0.2,0.6l-0.3,0c-1-0.1-1.2-0.5-1.2-1.3l0-1.1c0-0.7-0.1-1.1-0.9-1.1l-0.5,0C5,180,4.5,181.1,4,182.4H3.3l1.6-7.5l0.8-0.1L5,178
				c-0.1,0.5-0.2,0.9-0.4,1.4h0.1c1-2.1,2.4-4,5-4.6L9.9,175.4z" fill="black"/>
			<path class="st0" d="M10.7,179.7c0-2,1.1-5.1,4-5.1c1.7,0,2.4,1.3,2.4,2.8c0,2.2-1.2,5.1-4,5.1C11.4,182.5,10.7,181.2,10.7,179.7
				z M16.2,177.3c0-1-0.3-1.9-1.7-1.9c-2.2,0-3,2.7-3,4.6c0,1,0.4,1.9,1.7,1.9C15.5,181.8,16.2,179,16.2,177.3z" fill="black"/>
			<path class="st0" d="M18.3,182.4l1.2-5.9c0.1-0.3,0.1-0.6,0.1-0.8c0-0.2,0-0.4-0.1-0.6l0.8-0.3c0.1,0.3,0.2,0.5,0.2,0.8
				c0,0.2,0,0.5-0.1,0.7l0,0.2c0.7-0.9,1.7-1.7,2.6-1.7c1,0,1.4,0.7,1.4,1.5v0.1c0,0,0,0.1,0,0.1c0.7-0.9,1.7-1.7,2.6-1.7
				c1,0,1.4,0.7,1.4,1.5c0,0.2,0,0.4-0.1,0.6l-1.2,5.6h-0.8l1.1-5.3c0.1-0.3,0.1-0.6,0.1-0.9c0-0.5-0.2-0.8-0.8-0.8
				c-0.8,0-2,1.1-2.6,2l-1,4.9h-0.8l1.1-5.3c0.1-0.3,0.1-0.6,0.1-0.9c0-0.5-0.2-0.8-0.8-0.8c-0.8,0-1.9,1-2.6,2l-1,4.9H18.3z" fill="black"/>
			<path class="st0" d="M29.9,182.4l1.2-5.9c0.1-0.3,0.1-0.6,0.1-0.8c0-0.2,0-0.4-0.1-0.6l0.8-0.3c0.1,0.3,0.2,0.5,0.2,0.8
				c0,0.2,0,0.5-0.1,0.7l0,0.2c0.7-0.9,1.7-1.7,2.6-1.7c1,0,1.4,0.7,1.4,1.5v0.1c0,0,0,0.1,0,0.1c0.7-0.9,1.7-1.7,2.6-1.7
				c1,0,1.4,0.7,1.4,1.5c0,0.2,0,0.4-0.1,0.6l-1.2,5.6H38l1.1-5.3c0.1-0.3,0.1-0.6,0.1-0.9c0-0.5-0.2-0.8-0.8-0.8
				c-0.8,0-2,1.1-2.6,2l-1,4.9h-0.8l1.1-5.3c0.1-0.3,0.1-0.6,0.1-0.9c0-0.5-0.2-0.8-0.8-0.8c-0.8,0-1.9,1-2.6,2l-1,4.9H29.9z" fill="black"/>
			<path class="st0" d="M42.6,178.9c0,0.3-0.1,0.7-0.1,1c0,1.1,0.5,1.9,1.7,1.9c0.8,0,1.4-0.2,2.1-0.8l0.4,0.5c-0.8,0.7-1.6,1-2.7,1
				c-1.5,0-2.5-1-2.5-2.7c0-2.5,1.4-5.1,3.9-5.1c1.1,0,2,0.7,2,1.7c0,0.7-0.3,1.3-0.7,1.7c-0.5,0.5-1.4,0.8-3.1,0.8
				C43.5,178.9,43,178.9,42.6,178.9z M42.8,178.2c0.2,0,0.6,0,1,0c1.4,0,2-0.2,2.5-0.6c0.3-0.3,0.5-0.7,0.5-1.2
				c0-0.7-0.5-1.1-1.3-1.1C44.2,175.4,43.2,176.6,42.8,178.2z" fill="black"/>
			<path class="st0" d="M54.6,175.6c0-0.2,0-0.4,0-0.6c0-2-0.6-3-2.7-3c-0.3,0-0.7,0-0.9,0.1l0.2-0.6c0.2,0,0.6-0.1,0.9-0.1
				c2.5,0,3.2,1.5,3.2,3.7c0,3.1-1,7.5-4.5,7.5c-1.5,0-2.2-1.2-2.2-2.7c0-2.2,1.3-4.9,3.7-4.9C53.2,174.9,53.9,175.1,54.6,175.6z
				 M54.5,176.3c-0.5-0.3-1.3-0.7-2.1-0.7c-2.2,0-2.9,2.4-2.9,4.4c0,1,0.4,1.9,1.5,1.9C53.4,181.8,54.3,178.5,54.5,176.3z" fill="black"/>
			<path class="st0" d="M63.6,180c0-0.4,0-0.9,0.1-1.3h-1.3l-0.8,3.7h-0.8l0.8-3.7h-1.2c-0.4,2-1.5,3.8-3.2,3.8
				c-0.5,0-1-0.1-1.5-0.7l0.4-0.5c0.4,0.4,0.6,0.5,1.1,0.5c1.4,0,2.4-2.5,2.4-4.5c0-1.1-0.4-1.9-1.3-1.9c-0.4,0-0.8,0.2-1.3,0.8
				l-0.3-0.5c0.5-0.6,1.1-0.9,1.8-0.9c1.4,0,1.9,1.2,1.9,2.5c0,0.3,0,0.5,0,0.8h1.3l0.7-3.2l0.8-0.1l-0.7,3.3h1.3
				c0.5-1.8,1.6-3.3,3.1-3.3c0.5,0,1,0.1,1.5,0.7l-0.4,0.5c-0.4-0.4-0.6-0.5-1.1-0.5c-1.4,0-2.4,2.5-2.4,4.5c0,1.1,0.4,1.9,1.3,1.9
				c0.4,0,0.8-0.2,1.3-0.8l0.3,0.5c-0.5,0.6-1.1,0.9-1.8,0.9C64.1,182.5,63.6,181.3,63.6,180z" fill="black"/>
			<path class="st0" d="M70.4,174.9l0.8-0.1l-0.7,3.3h3.6l0.7-3.2l0.8-0.1l-1.6,7.6h-0.8l0.8-3.7h-3.6l-0.8,3.7h-0.8L70.4,174.9z"/>
			<path class="st0" d="M78.5,178c0.5-0.2,1-0.3,1.5-0.3c1.3,0,2.3,0.7,2.3,2c0,1.9-1.3,2.8-3,2.8c-0.8,0-1.6-0.2-2.4-0.6l1.5-7.1
				l0.8-0.1L78.5,178z M77.7,181.6c0.5,0.2,1,0.3,1.6,0.3c1.3,0,2-0.8,2-2c0-0.9-0.6-1.4-1.6-1.4c-0.5,0-1,0.1-1.4,0.2L77.7,181.6z
				 M84.6,174.9l0.9-0.1l-1.6,7.6h-0.8L84.6,174.9z" fill="black"/>
			<path class="st0" d="M91.8,181.7c-0.1-0.2-0.1-0.4-0.1-0.6c0-0.1,0-0.2,0-0.2c-0.6,0.8-1.5,1.7-2.7,1.7c-1.2,0-1.7-0.6-1.7-1.5
				c0-0.2,0-0.4,0.1-0.6l1.2-5.5l0.8-0.2l-1.2,5.4c0,0.2-0.1,0.4-0.1,0.6c0,0.6,0.3,1.1,1.1,1.1c0.9,0,1.8-0.8,2.7-2.2l1-4.8
				l0.8-0.1l-1.1,5.3c-0.1,0.4-0.1,0.7-0.1,1c0,0.4,0.1,0.6,0.4,0.9l-0.6,0.5C92,182.3,91.9,182,91.8,181.7z M93.4,172.5
				c-0.5,0.7-1.3,1.3-2.3,1.3c-1.1,0-1.5-0.6-1.8-1.3l0.6-0.4c0.3,0.5,0.6,0.9,1.3,0.9c0.7,0,1.2-0.4,1.7-0.9L93.4,172.5z"/>
			<path class="st0" d="M98.1,182.4l1.2-5.9c0.1-0.3,0.1-0.6,0.1-0.8c0-0.2,0-0.4-0.1-0.6l0.8-0.3c0.1,0.3,0.2,0.5,0.2,0.8
				c0,0.2,0,0.5-0.1,0.8l0,0.1c0.7-0.9,1.7-1.7,2.7-1.7c1.1,0,1.6,0.6,1.6,1.5c0,0.1,0,0.4-0.1,0.6l-1.2,5.6h-0.8l1.1-5.3
				c0-0.1,0.1-0.6,0.1-0.8c0-0.6-0.3-0.8-1-0.8c-0.9,0-2,1.1-2.7,2l-1,4.9H98.1z" fill="black"/>
			<path class="st0" d="M106,179.7c0-2,1.1-5.1,4-5.1c1.7,0,2.4,1.3,2.4,2.8c0,2.2-1.2,5.1-4,5.1C106.7,182.5,106,181.2,106,179.7z
				 M111.5,177.3c0-1-0.3-1.9-1.7-1.9c-2.2,0-3,2.7-3,4.6c0,1,0.4,1.9,1.7,1.9C110.8,181.8,111.5,179,111.5,177.3z"/>
			<path class="st0" d="M113.8,180c0-2.3,1.5-5.3,4-5.3c0.5,0,1.2,0.1,1.7,0.6l-0.4,0.6c-0.4-0.4-0.9-0.5-1.5-0.5
				c-1.8,0-3,2.5-3,4.5c0,1.1,0.5,1.9,1.7,1.9c0.7,0,1.3-0.3,1.9-0.8l0.3,0.6c-0.8,0.7-1.5,1-2.4,1
				C114.4,182.5,113.8,181.3,113.8,180z" fill="black"/>
			<path class="st0" d="M121.1,178.9c0,0.3-0.1,0.7-0.1,1c0,1.1,0.5,1.9,1.7,1.9c0.8,0,1.4-0.2,2.2-0.8l0.4,0.5
				c-0.8,0.7-1.6,1-2.7,1c-1.5,0-2.5-1-2.5-2.7c0-2.5,1.4-5.1,3.9-5.1c1.1,0,2,0.7,2,1.7c0,0.7-0.3,1.3-0.7,1.7
				c-0.5,0.5-1.4,0.8-3.1,0.8C122,178.9,121.4,178.9,121.1,178.9z M121.2,178.2c0.2,0,0.6,0,1,0c1.4,0,2-0.2,2.5-0.6
				c0.3-0.3,0.5-0.7,0.5-1.2c0-0.7-0.5-1.1-1.3-1.1C122.6,175.4,121.6,176.6,121.2,178.2z M122.4,173.1c0-0.3,0.3-0.6,0.6-0.6
				c0.3,0,0.6,0.3,0.6,0.6s-0.2,0.6-0.6,0.6C122.7,173.7,122.4,173.4,122.4,173.1z M125,173.1c0-0.3,0.3-0.6,0.6-0.6
				c0.3,0,0.6,0.3,0.6,0.6s-0.3,0.6-0.6,0.6C125.3,173.7,125,173.4,125,173.1z" fill="black"/>
			<path class="st0" d="M133.2,174.9l-1.6,7.5h-0.8l1.5-6.8H130l-0.4,1.3c-0.2,0.7-0.5,1.7-0.8,2.7c-0.6,1.7-1,2.8-2.5,2.9l-0.2,0
				l0-0.6l0.3,0c0.9-0.2,1.3-1.2,1.8-2.7c0.3-0.8,0.5-1.7,0.8-2.7l0.4-1.6H133.2z" fill="black"/>
			<path class="st0" d="M134.5,179.7c0-2,1.1-5.1,4-5.1c1.7,0,2.4,1.3,2.4,2.8c0,2.2-1.2,5.1-4,5.1
				C135.1,182.5,134.5,181.2,134.5,179.7z M140,177.3c0-1-0.3-1.9-1.7-1.9c-2.2,0-3,2.7-3,4.6c0,1,0.4,1.9,1.7,1.9
				C139.3,181.8,140,179,140,177.3z" fill="black"/>
			<path class="st0" d="M148.7,175.4c-1.8,0.4-3,1.5-3.9,2.9l0.5,0c0.9,0,1.3,0.4,1.4,1.3l0.1,1.5c0,0.5,0.2,0.6,0.6,0.7l0.3,0.1
				l-0.2,0.6l-0.3,0c-1-0.1-1.2-0.5-1.2-1.3l0-1.1c0-0.7-0.1-1.1-0.9-1.1l-0.5,0c-0.7,1.1-1.2,2.2-1.7,3.5H142l1.6-7.5l0.8-0.1
				l-0.7,3.2c-0.1,0.5-0.2,0.9-0.4,1.4h0.1c1-2.1,2.4-4,5-4.6L148.7,175.4z" fill="black"/>
		</g>
	</g>
</g>
</svg>
