<?xml version="1.0" standalone="no"?>
<!DOCTYPE svg PUBLIC "-//W3C//DTD SVG 20010904//EN"
 "http://www.w3.org/TR/2001/REC-SVG-20010904/DTD/svg10.dtd">
<svg version="1.0" xmlns="http://www.w3.org/2000/svg"
 width="1707.000000pt" height="1707.000000pt" viewBox="0 0 1707.000000 1707.000000"
 preserveAspectRatio="xMidYMid meet">
<metadata>
Created by potrace 1.14, written by Peter Selinger 2001-2017
</metadata>
<g transform="translate(0.000000,1707.000000) scale(0.100000,-0.100000)"
fill="#000000" stroke="none">
<path d="M10234 17051 c-39 -24 -57 -46 -91 -111 -28 -53 -54 -130 -67 -195
-21 -104 -24 -119 -31 -180 -13 -119 -16 -155 -20 -235 -2 -47 -4 -85 -5 -85
-2 0 -11 -484 -13 -765 -2 -157 -6 -291 -11 -298 -4 -6 -3 -12 1 -12 5 0 8
-20 8 -45 0 -25 -3 -45 -6 -45 -7 0 -5 -38 3 -46 3 -3 2 -19 -2 -35 -5 -18 -5
-29 1 -29 6 0 7 -4 4 -10 -3 -5 -8 -177 -10 -382 -6 -437 -12 -841 -20 -1273
-4 -170 -8 -419 -9 -551 -2 -133 -6 -246 -10 -252 -3 -6 -2 -13 4 -17 6 -4 7
-12 3 -18 -10 -17 -11 -47 -1 -53 4 -3 6 -10 2 -15 -3 -6 -8 -124 -10 -262 -3
-271 -10 -666 -19 -1137 -4 -162 -8 -409 -9 -548 -2 -139 -6 -256 -9 -259 -3
-3 -2 -16 3 -29 6 -14 6 -26 0 -29 -6 -3 -6 -15 0 -30 5 -14 6 -25 2 -25 -4 0
-8 -89 -9 -198 -1 -189 -7 -567 -18 -1152 -7 -393 -16 -853 -18 -1012 -3 -154
-12 -193 -14 -60 -2 138 -13 450 -18 527 -3 39 -7 115 -10 170 -7 166 -19 347
-30 470 -2 28 -6 81 -9 119 -3 38 -8 95 -11 125 -4 31 -8 74 -10 96 -12 116
-16 153 -19 181 -3 17 -8 60 -11 95 -3 35 -8 71 -10 79 -2 8 -7 38 -10 65 -3
28 -8 64 -10 80 -3 17 -7 41 -9 55 -2 14 -7 41 -10 60 -3 19 -8 51 -11 70 -2
19 -7 46 -10 60 -3 14 -7 39 -9 55 -2 17 -6 37 -9 45 -3 8 -8 31 -11 50 -3 19
-7 46 -10 60 -3 14 -11 50 -17 80 -5 30 -15 69 -20 86 -5 17 -12 42 -14 55 -4
21 -16 74 -20 89 -1 3 -5 19 -10 35 -34 131 -96 331 -116 380 -15 35 -32 80
-35 90 -1 6 -8 24 -15 40 -6 17 -13 35 -14 41 -6 24 -128 269 -165 331 -22 36
-40 69 -40 73 0 5 -3 10 -8 12 -4 2 -28 32 -54 68 -25 36 -61 84 -80 105 -45
54 -177 184 -217 215 -18 14 -46 35 -61 48 -15 12 -31 22 -36 22 -4 0 -15 6
-23 14 -41 37 -254 137 -335 157 -76 19 -161 38 -206 45 -64 10 -515 10 -575
0 -27 -4 -61 -9 -75 -11 -39 -4 -154 -46 -162 -58 -4 -7 -8 -9 -8 -4 0 4 -15
0 -32 -10 -18 -9 -36 -16 -40 -15 -5 1 -8 -3 -8 -8 0 -6 -6 -10 -13 -10 -16 0
-177 -110 -226 -154 -61 -55 -165 -161 -208 -212 -90 -106 -215 -280 -249
-346 -9 -18 -20 -35 -24 -38 -3 -3 -14 -18 -22 -35 -8 -16 -28 -52 -43 -80
-128 -228 -273 -572 -365 -860 -18 -55 -34 -107 -38 -115 -3 -8 -6 -19 -8 -25
-1 -5 -12 -44 -24 -85 -11 -41 -23 -84 -25 -94 -18 -83 -83 -242 -114 -278 -8
-10 -10 -18 -5 -18 5 0 4 -4 -1 -8 -12 -8 -50 -70 -128 -212 -17 -30 -41 -73
-53 -95 -30 -53 -166 -327 -197 -395 -14 -30 -36 -81 -50 -112 -15 -31 -47
-108 -73 -170 -25 -62 -52 -126 -59 -143 -20 -48 -77 -196 -79 -208 -2 -7 -8
-23 -13 -37 -16 -39 -89 -248 -113 -325 -12 -38 -25 -79 -30 -90 -5 -11 -14
-38 -20 -60 -6 -22 -14 -47 -17 -55 -3 -8 -8 -22 -10 -30 -6 -25 -9 -33 -28
-95 -10 -33 -19 -64 -21 -70 -1 -5 -18 -64 -37 -130 -29 -99 -43 -154 -52
-195 -1 -3 -4 -14 -8 -25 -3 -11 -8 -31 -11 -45 -3 -14 -14 -57 -24 -97 -11
-40 -17 -74 -14 -77 3 -4 -1 -6 -8 -6 -7 0 -11 -2 -8 -6 3 -3 2 -22 -3 -42
-14 -58 -79 -343 -84 -366 -2 -12 -4 -21 -5 -21 -1 0 -3 -9 -5 -20 -1 -11 -6
-36 -10 -55 -4 -19 -9 -44 -11 -55 -1 -11 -5 -31 -9 -45 -8 -38 -17 -83 -20
-105 -2 -11 -12 -69 -24 -130 -21 -114 -60 -341 -66 -385 -1 -14 -6 -45 -10
-70 -8 -48 -11 -69 -19 -140 -3 -25 -8 -63 -11 -85 -11 -68 -13 -88 -20 -155
-4 -36 -8 -78 -10 -95 -10 -78 -15 -135 -20 -190 -2 -33 -7 -85 -10 -115 -6
-53 -9 -102 -21 -310 -7 -118 -6 -559 0 -620 11 -95 23 -169 35 -207 5 -18 7
-33 4 -33 -3 0 -1 -6 4 -12 6 -7 13 -27 16 -43 8 -41 106 -245 118 -245 5 0 9
-7 9 -16 0 -8 6 -22 13 -29 6 -8 26 -33 42 -55 40 -55 129 -146 190 -196 63
-51 151 -105 159 -97 3 4 6 1 6 -5 0 -7 8 -12 18 -12 10 0 26 -6 37 -13 11 -8
43 -20 70 -27 28 -7 55 -16 60 -20 9 -6 85 -24 160 -36 17 -3 58 -6 93 -6 54
-1 76 -8 39 -14 -57 -8 -135 -73 -144 -121 -14 -66 -2 -153 20 -153 6 0 7 -3
4 -6 -12 -12 67 -76 128 -104 33 -15 96 -35 140 -44 88 -18 96 -22 176 -92
237 -208 443 -325 779 -442 8 -3 20 -6 25 -7 6 -2 39 -11 75 -20 36 -10 74
-19 85 -21 11 -1 31 -5 45 -9 24 -5 45 -9 128 -20 152 -22 287 -29 557 -30
263 0 339 4 430 25 28 7 59 13 70 16 11 2 32 6 47 10 15 3 31 6 35 6 5 0 19 5
33 10 14 5 32 11 40 13 8 2 53 16 100 31 47 15 87 28 90 29 3 1 14 5 25 10 11
4 63 25 115 45 123 49 234 101 238 111 2 5 10 9 19 9 8 0 39 13 69 30 30 16
54 26 54 22 0 -4 4 -2 8 3 4 6 19 16 35 24 27 14 38 38 43 91 1 14 3 25 4 25
2 0 7 25 14 80 8 69 15 107 23 125 3 8 5 24 4 36 -3 36 24 47 122 50 130 3
193 11 230 30 40 21 162 143 208 209 36 51 72 139 61 149 -3 3 0 6 5 6 15 0 6
-501 -9 -515 -5 -5 -16 -7 -108 -20 -25 -3 -52 -9 -60 -12 -17 -7 -27 -10 -38
-12 -5 0 -9 -27 -10 -58 -4 -92 -18 -278 -22 -278 0 0 -3 -20 -5 -45 -4 -46
-11 -106 -20 -169 -13 -97 -17 -129 -17 -163 -1 -30 -5 -37 -25 -41 -12 -2
-23 0 -23 5 0 5 -5 6 -10 3 -6 -4 -92 -8 -193 -10 -368 -8 -729 -24 -892 -39
-107 -10 -162 -17 -185 -21 -13 -3 -42 -7 -65 -11 -220 -32 -366 -104 -438
-219 -49 -77 -62 -158 -82 -515 -15 -282 -24 -390 -31 -402 -16 -26 23 -26
2061 -13 539 3 986 6 993 6 6 -1 18 -1 25 -2 25 -1 1804 17 1938 20 l26 1 -3
198 c-9 504 -16 579 -61 680 -17 38 -103 132 -121 132 -7 0 -12 3 -12 8 0 21
-196 85 -295 96 -16 2 -30 5 -30 6 0 1 -20 3 -45 5 -25 1 -61 5 -80 8 -42 7
-167 16 -304 22 -54 3 -101 7 -103 9 -3 2 -17 0 -33 -4 -16 -4 -31 -6 -34 -2
-3 3 -88 7 -189 9 -497 8 -568 10 -574 16 -3 4 -14 30 -23 58 -16 45 -17 90
-15 380 l2 328 -46 11 c-25 6 -62 13 -81 16 -19 2 -38 8 -43 13 -15 15 -19
191 -20 741 -1 509 1 547 18 580 16 30 18 67 21 305 2 148 6 279 8 290 2 11 5
25 5 32 1 6 20 22 44 36 46 28 136 118 209 212 27 33 52 65 57 71 5 6 16 25
25 42 9 18 21 32 26 32 6 0 10 4 10 10 0 17 -25 0 -47 -33 -51 -74 -141 -169
-148 -157 -3 6 -2 10 2 10 7 0 105 112 148 168 12 16 42 45 70 67 11 9 14 14
8 10 -8 -4 -13 0 -13 9 0 9 7 16 15 16 8 0 15 6 15 14 0 7 7 19 15 26 8 7 13
16 10 20 -3 5 -1 10 3 12 13 5 179 317 188 353 1 6 18 46 37 90 19 44 49 121
66 170 18 50 37 99 41 110 11 26 50 148 50 157 1 4 7 23 16 43 8 19 14 37 13
40 -1 3 3 18 9 33 10 27 48 160 57 197 2 11 9 38 15 60 6 22 12 47 14 55 2 8
14 53 26 100 12 47 24 96 26 110 3 14 11 52 19 85 8 33 17 76 20 95 3 19 10
53 15 75 9 39 15 73 25 138 3 17 8 43 10 57 3 14 8 36 10 50 5 24 11 60 20
125 3 17 7 41 9 55 6 30 17 103 21 145 2 17 4 30 5 30 2 0 4 16 14 100 4 33 9
71 11 85 12 83 28 221 29 257 0 24 3 43 6 43 3 0 5 15 6 33 0 29 9 145 19 257
2 25 6 83 9 130 4 47 9 117 11 157 20 273 29 686 28 1268 -1 639 -5 855 -15
855 -4 0 -3 11 2 24 5 13 6 26 3 29 -2 3 -6 56 -9 119 -2 62 -6 138 -8 169 -3
31 -8 103 -11 160 -7 107 -10 157 -20 269 -12 135 -14 157 -19 230 -6 72 -9
101 -21 200 -7 62 -14 133 -20 210 -3 36 -8 76 -11 90 -2 14 -7 44 -9 68 -3
23 -8 63 -11 90 -3 26 -7 63 -9 82 -2 19 -7 55 -11 80 -8 49 -9 62 -18 130 -3
25 -8 58 -11 75 -4 16 -9 50 -11 75 -9 70 -12 95 -14 95 -1 0 -3 14 -5 30 -1
17 -8 62 -15 100 -6 39 -14 84 -16 100 -4 26 -15 91 -19 105 -7 30 -29 180
-29 198 0 12 -3 22 -6 22 -4 0 -7 6 -7 13 -2 24 -12 83 -33 187 -12 58 -23
116 -26 130 -2 14 -9 45 -14 70 -5 25 -12 56 -14 70 -3 14 -14 66 -25 115 -11
50 -22 101 -25 115 -3 14 -10 43 -16 65 -5 22 -12 54 -15 70 -3 17 -28 118
-56 225 -27 107 -52 206 -55 220 -2 14 -8 34 -11 45 -4 11 -8 22 -8 25 -1 3
-5 19 -9 35 -26 98 -115 397 -163 550 -9 28 -18 55 -19 60 -9 35 -95 273 -104
287 -5 10 -10 27 -10 37 0 11 -4 23 -10 26 -5 3 -10 12 -10 19 0 8 -8 31 -17
52 -9 22 -18 44 -19 49 -1 6 -14 42 -29 80 -30 76 -35 114 -38 247 -1 49 -4
88 -7 88 -3 0 -6 26 -6 58 -1 31 -5 91 -9 132 -4 41 -8 89 -10 105 -1 17 -6
57 -11 90 -4 33 -9 68 -10 78 -1 9 -3 20 -4 25 -1 4 -3 12 -4 17 -20 120 -80
243 -147 299 -70 59 -188 82 -245 47z m417 -2596 c13 -55 24 -102 24 -105 1
-3 5 -18 9 -35 4 -16 12 -48 17 -70 5 -22 12 -49 14 -60 2 -11 12 -49 20 -85
9 -36 18 -74 20 -85 3 -20 6 -33 25 -115 9 -43 19 -89 24 -120 2 -8 6 -26 9
-40 4 -14 9 -36 11 -50 3 -14 10 -50 16 -80 6 -30 13 -67 15 -82 2 -15 6 -35
9 -45 3 -10 7 -34 10 -53 3 -19 8 -48 12 -65 3 -16 7 -39 8 -50 3 -20 10 -59
22 -120 3 -16 7 -43 10 -60 2 -16 8 -55 14 -85 5 -30 12 -73 15 -95 3 -22 10
-69 16 -105 6 -36 12 -78 14 -95 2 -16 8 -64 14 -105 6 -41 14 -93 16 -115 5
-37 11 -79 20 -145 2 -14 7 -50 10 -80 4 -30 9 -66 10 -80 2 -14 6 -52 10 -85
3 -33 8 -76 10 -95 10 -80 14 -118 20 -170 11 -97 17 -134 21 -142 3 -5 0 -8
-6 -8 -6 0 -8 -5 -4 -11 7 -12 9 -29 19 -149 3 -41 8 -86 10 -100 2 -14 6 -59
10 -100 3 -41 8 -97 10 -125 3 -27 7 -86 10 -130 3 -44 7 -100 10 -125 30
-284 39 -650 39 -1585 0 -715 -4 -932 -19 -1100 -2 -27 -6 -84 -10 -125 -3
-41 -7 -95 -10 -120 -3 -25 -7 -72 -10 -105 -2 -33 -7 -76 -10 -95 -5 -36 -12
-94 -20 -188 -3 -29 -8 -67 -11 -85 -3 -17 -8 -48 -9 -67 -2 -19 -4 -35 -5
-35 -1 0 -4 -18 -6 -40 -2 -22 -8 -64 -14 -93 -5 -29 -9 -56 -9 -60 1 -4 0 -9
-1 -12 -1 -3 -3 -14 -5 -25 -1 -11 -5 -38 -9 -60 -3 -22 -8 -51 -11 -65 -3
-14 -7 -43 -10 -66 -3 -22 -9 -54 -14 -72 -5 -18 -7 -32 -4 -32 3 0 0 -6 -6
-13 -6 -8 -9 -16 -6 -18 2 -3 -5 -45 -16 -94 -11 -50 -22 -101 -25 -115 -3
-14 -7 -33 -10 -42 -6 -21 -14 -54 -21 -93 -3 -16 -9 -37 -14 -46 -4 -9 -10
-27 -12 -40 -3 -13 -13 -51 -23 -84 -10 -33 -19 -62 -19 -65 -7 -28 -27 -98
-32 -110 -4 -8 -7 -17 -8 -20 -1 -3 -4 -12 -8 -20 -3 -8 -21 -58 -40 -110 -54
-146 -114 -280 -131 -292 -6 -4 -8 -8 -4 -8 11 0 -119 -232 -134 -238 -5 -2
-8 -9 -8 -16 0 -7 -10 -23 -21 -35 -16 -17 -24 -20 -29 -10 -8 13 -7 236 5
924 4 209 8 448 9 530 1 83 5 156 9 163 5 6 5 12 0 12 -4 0 -8 20 -8 45 0 25
2 45 5 45 3 0 5 105 6 233 1 127 4 403 8 612 4 209 9 524 12 700 4 176 7 416
8 532 0 117 4 213 7 213 4 0 3 18 -1 40 -4 22 -5 41 -3 44 3 2 7 125 9 273 2
147 6 390 9 538 13 699 18 956 19 1157 0 120 4 218 7 218 4 0 4 15 0 33 -5 18
-5 41 -1 52 4 11 3 28 -2 38 -5 9 -5 17 -1 17 4 0 9 98 10 218 1 229 9 715 18
1247 4 176 8 423 9 548 2 125 6 230 9 233 3 3 1 18 -3 34 -4 16 -6 31 -3 34 5
5 15 220 15 330 0 46 13 13 39 -99z m-2711 -2809 c242 -19 404 -76 514 -181
63 -60 86 -92 86 -121 0 -24 -100 -226 -136 -274 -6 -8 -17 -32 -24 -52 -6
-22 -18 -38 -26 -38 -9 0 -41 12 -72 26 -133 61 -303 118 -389 130 -59 9 -473
3 -473 -7 0 -11 -141 10 -154 24 -17 17 -20 211 -4 257 13 40 82 103 151 140
31 16 57 27 57 23 0 -5 4 -3 8 3 13 19 172 59 277 70 33 4 62 8 63 9 2 2 13 2
25 0 12 -2 56 -6 97 -9z m-2206 -4750 c-3 -584 -5 -737 -19 -1186 -15 -509
-19 -721 -18 -1095 1 -443 6 -584 29 -835 4 -36 7 -87 8 -115 1 -27 5 -56 9
-62 5 -9 2 -13 -10 -14 -110 -7 -227 45 -329 146 -58 58 -81 91 -122 176 -28
57 -56 124 -62 149 -6 25 -15 56 -20 70 -5 14 -11 41 -14 61 -3 20 -8 42 -10
50 -35 97 -40 615 -10 919 3 30 7 73 10 95 2 22 5 56 8 75 2 19 7 55 10 79 11
90 16 125 41 271 3 19 10 60 15 90 5 30 12 66 15 80 4 14 8 36 9 50 3 22 14
77 31 158 6 29 13 61 20 92 13 61 15 71 20 88 2 9 11 49 20 87 8 39 18 77 21
85 3 8 7 24 9 35 11 57 15 74 30 125 10 30 19 64 21 75 2 11 22 83 45 160 22
77 42 147 43 155 1 8 12 47 25 85 12 39 25 81 27 95 3 13 10 30 16 37 6 7 8
13 5 13 -3 0 5 32 18 70 13 39 21 70 18 70 -3 0 -1 6 4 13 5 6 18 41 28 77 10
36 22 70 25 75 4 6 10 23 14 39 20 81 24 -46 20 -638z m4876 -2250 c0 -2 -8
-10 -17 -17 -16 -13 -17 -12 -4 4 13 16 21 21 21 13z m-786 -123 c-8 -362 -17
-532 -29 -575 -14 -55 -26 -28 -20 50 5 71 8 126 20 326 6 109 21 284 24 294
5 14 7 -14 5 -95z m670 22 c-4 -8 -11 -15 -16 -15 -6 0 -5 6 2 15 7 8 14 15
16 15 2 0 1 -7 -2 -15z m-802 -1507 c-7 -7 -12 -8 -12 -2 0 14 12 26 19 19 2
-3 -1 -11 -7 -17z m-3787 -124 c17 -32 33 -60 38 -62 4 -2 7 -10 7 -18 0 -16
-7 -11 -48 27 -16 15 -73 38 -107 43 -26 4 -29 16 -3 16 14 0 33 9 43 20 10
11 15 20 11 20 -4 0 -4 5 -1 11 12 19 30 3 60 -57z m190 -279 c33 -35 177
-153 221 -181 126 -80 288 -144 454 -179 8 -2 15 -4 15 -5 0 -1 14 -3 30 -5
17 -2 41 -6 55 -9 54 -11 77 -15 125 -21 92 -11 128 -15 305 -30 56 -5 195
-13 268 -14 12 -1 22 -5 22 -9 0 -4 -24 -7 -52 -6 -29 2 -109 5 -178 8 -69 3
-152 8 -185 12 -33 3 -76 7 -95 9 -19 1 -35 4 -35 4 0 1 -21 4 -46 6 -45 4
-62 7 -119 20 -14 3 -41 7 -60 10 -19 2 -51 9 -70 15 -19 6 -46 13 -60 16 -79
14 -297 98 -312 119 -4 5 -8 7 -8 3 0 -18 -161 92 -215 147 -39 39 -110 130
-90 115 11 -7 25 -19 30 -25z m1529 -453 c3 -5 -1 -9 -9 -9 -8 0 -12 4 -9 9 3
4 7 8 9 8 2 0 6 -4 9 -8z"/>
<path d="M10740 15881 c0 -6 4 -13 10 -16 6 -3 7 1 4 9 -7 18 -14 21 -14 7z"/>
</g>
</svg>
